<svg id="Layer_1" data-name="Layer 1" xmlns="http://www.w3.org/2000/svg" viewBox="0 0 346 128"><defs><style>.cls-1,.cls-4,.cls-5,.cls-6,.cls-7{fill:#5202b5;}.cls-2,.cls-3{fill:#fff;}.cls-3{font-size:51px;font-family:RobotoCondensed-Bold, Roboto Condensed;font-weight:700;letter-spacing:0.03em;}.cls-4,.cls-5,.cls-6,.cls-7{font-family:RobotoCondensed-Regular, Roboto Condensed;font-weight:400;}.cls-4{letter-spacing:0.01em;}.cls-5{letter-spacing:0.02em;}.cls-6{letter-spacing:0.02em;}.cls-7{letter-spacing:0.03em;}.cls-8{font-size:15.85px;fill:#8c8c8c;font-family:MyriadPro-Regular, Myriad Pro;}.cls-9{letter-spacing:-0.01em;}.cls-10{letter-spacing:-0.01em;}.cls-11{letter-spacing:0em;}.cls-12{letter-spacing:-0.04em;}.cls-13{letter-spacing:0.01em;}.cls-14{letter-spacing:-0.01em;}.cls-15{letter-spacing:0em;}.cls-16{letter-spacing:0.03em;}</style></defs><title>logosMinterFactory</title><path class="cls-1" d="M49.88,88.13h-20v-24L29.62,64q-2.22,2.53-4.45,5.06a5.45,5.45,0,0,1-6,1.55,5.46,5.46,0,0,1-3.79-5.25c-.21-3.65-.35-7.31-.52-11,0-1-.11-2-.17-3,3.39,1.19,6.37.52,9.3-1.55l.22,4.61.24.06c1.14-1.51,2.3-3,3.4-4.54a2.57,2.57,0,0,1,1.75-1.13c5.88-1.12,11.75-2.33,17.64-3.44,7.11-1.33,13.4,3.17,14.12,10.33.4,4.06.25,23.33.34,27.42,0,1.39.06-12.37,0-11,0,.32-.37,16-.58,16-2.74.06-5.48,0-8.46,0"/><path class="cls-1" d="M62.74,34.14c-1.08-3.69-2.09-7.27-3.2-10.82-.47-1.53-1.16-3-1.7-4.51a5.48,5.48,0,0,1-.13-1.29c.46.09,1.06,0,1.36.3a49,49,0,0,1,5,4.83,26,26,0,0,1,4.77,9.19c.29.94.66,1.2,1.63,1a2.65,2.65,0,0,1,3.2,3.59,2,2,0,0,1-1.92,1.53c-1.25.07-1.47.67-1.4,1.85a27.16,27.16,0,0,1-3,15.07,10.61,10.61,0,0,1-1.18,1.71c-.18.22-.66.48-.77.4a2,2,0,0,1-.49-.86,1.63,1.63,0,0,1,0-.54A84.59,84.59,0,0,0,63.8,40.49a6.16,6.16,0,0,0-.22-.83L50.14,42.4a15.32,15.32,0,0,0,3.19-6.11c.05-.23.51-.46.81-.52,2.4-.46,4.82-.88,7.23-1.32Z"/><path class="cls-1" d="M40.92,28.11c3.09.21,6.19.4,9.28.63a4,4,0,0,1,1.68.46c.48.29,1.11.84,1.11,1.28a2.09,2.09,0,0,1-.87,1.68c-1.2.5-1.31,1.29-1.39,2.42a9.8,9.8,0,0,1-19.56-.87c0-.67-.13-1.1-.82-1.29a2.61,2.61,0,0,1-.76-.43c-1.11-.87-1-2.37.35-2.73a31.61,31.61,0,0,1,5.48-.88c1.82-.15,3.66,0,5.48,0Z"/><path class="cls-1" d="M29.16,26.76c.24-.91-.58-2.07,1-2.23.13,0,.27-.38.34-.61A10.13,10.13,0,0,1,35.6,17.6a3.11,3.11,0,0,0,.86-.8,5.67,5.67,0,0,1,9,0,3.18,3.18,0,0,0,.88.8,10.35,10.35,0,0,1,5,6.15,1.68,1.68,0,0,0,.79.81c1.06.55.37,1.37.51,2.16A100.85,100.85,0,0,0,29.16,26.76ZM41,16.81a3.46,3.46,0,1,0,3.43,3.41A3.49,3.49,0,0,0,41,16.81Z"/><path class="cls-1" d="M20.37,38.87c2.15,0,3.06.61,3.63,2,1.3,3.27-.13,6.38-3.57,7.81a5.5,5.5,0,0,1-7.65-3.15c-1.47-3.45-.68-5,3-5.83C17.49,39.36,19.22,39.08,20.37,38.87Z"/><path class="cls-1" d="M12.74,50.09c-2.23.44-4.18.92-6.15,1.19a3.41,3.41,0,0,1-1.46-6.6c1.35-.41,2.77-.59,4.28-.9A10.74,10.74,0,0,0,12.74,50.09Z"/><path class="cls-1" d="M26.83,40.7c1-.19,1.84-.4,2.7-.5a1.12,1.12,0,0,1,.88.39,13.38,13.38,0,0,0,5.4,4.68l-9.57,1.9A8.12,8.12,0,0,0,26.83,40.7Z"/><path class="cls-2" d="M41,16.81a3.46,3.46,0,1,1-3.56,3.4A3.46,3.46,0,0,1,41,16.81Z"/><text/><text class="cls-3" transform="translate(26.6 89.23)">M<tspan class="cls-1" x="39.95" y="0">inter</tspan><tspan class="cls-4" x="141.25" y="0">F</tspan><tspan class="cls-5" x="166.18" y="0">ac</tspan><tspan class="cls-6" x="216.72" y="0">t</tspan><tspan class="cls-5" x="232.56" y="0">o</tspan><tspan class="cls-7" x="259.44" y="0">r</tspan><tspan class="cls-5" x="276.67" y="0">y</tspan></text><text class="cls-8" transform="translate(202.08 114.35)"><tspan class="cls-9">b</tspan><tspan x="8.91" y="0">y </tspan><tspan class="cls-10" x="19.74" y="0">D</tspan><tspan class="cls-11" x="30.07" y="0">A</tspan><tspan x="39.73" y="0">pps</tspan><tspan class="cls-12" x="64.04" y="0">F</tspan><tspan x="71.05" y="0">a</tspan><tspan class="cls-13" x="78.69" y="0">c</tspan><tspan class="cls-14" x="86" y="0">t</tspan><tspan class="cls-15" x="91.15" y="0">o</tspan><tspan class="cls-16" x="99.85" y="0">r</tspan><tspan x="105.43" y="0">y</tspan></text></svg>